<svg version="1.1" id="Layer_1" xmlns="http://www.w3.org/2000/svg" xmlns:xlink="http://www.w3.org/1999/xlink" x="0px" y="0px"
	 viewBox="0 0 340.1 51" style="enable-background:new 0 0 340.1 51;" xml:space="preserve">
<style type="text/css">
	.st0{fill:#ffffff;}
	.st1{fill:#ffffff;}
	.st2{fill:#ffffff;}
	.st3{fill:#ffffff;}
	.st4{fill:#ffffff;}
	.st5{fill:#ffffff;}
</style>
<g>
	<g>
    	<path class="st0" d="M214.5,5.6h-5.7v1.7h4c-0.2,2.4-2.2,3.4-4,3.4c-2.4,0-4.4-1.9-4.4-4.5c0-2.5,2-4.5,4.4-4.5c1.9,0,3,1.2,3,1.2
			l1.2-1.2c0,0-1.5-1.7-4.3-1.7c-3.5,0-6.2,3-6.2,6.2c0,3.1,2.6,6.2,6.3,6.2c3.3,0,5.7-2.3,5.7-5.6C214.6,6.1,214.5,5.6,214.5,5.6z"
			/>
		<path class="st1" d="M219.2,6c1.1,0,2.2,0.9,2.2,2.4c0,1.5-1.1,2.4-2.2,2.4c-1.3,0-2.3-1-2.3-2.4C216.9,7,217.9,6,219.2,6
			 M219.1,4.4c-2.3,0-4,1.8-4,3.9c0,2.2,1.6,4,4,4c2.2,0,4-1.7,4-4C223.1,5.8,221.1,4.4,219.1,4.4"/>
		<path class="st2" d="M227.9,6c1.1,0,2.2,0.9,2.2,2.4c0,1.5-1.1,2.4-2.2,2.4c-1.3,0-2.3-1-2.3-2.4C225.6,7,226.6,6,227.9,6
			 M227.8,4.4c-2.3,0-4,1.8-4,3.9c0,2.2,1.6,4,4,4c2.2,0,4-1.7,4-4C231.8,5.8,229.8,4.4,227.8,4.4"/>
		<path class="st0" d="M236.5,6c1,0,2.1,0.9,2.1,2.4c0,1.6-1.1,2.4-2.1,2.4c-1.1,0-2.2-0.9-2.2-2.4C234.3,6.9,235.4,6,236.5,6
			 M236.4,4.4c-2.1,0-3.8,1.9-3.8,4c0,2.4,1.9,4,3.8,4c1.1,0,1.7-0.5,2.2-1v0.8c0,1.4-0.8,2.2-2.1,2.2c-1.2,0-1.8-0.9-2-1.4
			l-1.5,0.6c0.5,1.1,1.6,2.3,3.6,2.3c2.1,0,3.7-1.3,3.7-4.1V4.7h-1.7v0.7C238,4.8,237.3,4.4,236.4,4.4z"/>
		<path class="st1" d="M247.7,6c0.7,0,1.2,0.4,1.5,0.8l-3.6,1.5C245.4,7.1,246.5,6,247.7,6 M247.6,4.4c-2,0-3.7,1.6-3.7,4
			c0,2.5,1.9,4,3.9,4c1.7,0,2.7-0.9,3.3-1.7l-1.4-0.9c-0.4,0.6-1,1.1-1.9,1.1c-1.1,0-1.6-0.6-2-1.2l5.3-2.2l-0.3-0.6
			C250.4,5.5,249.2,4.4,247.6,4.4z"/>
		<rect x="241.3" y="0.4" class="st3" width="1.8" height="11.7"/>
		<path class="st4" d="M333.7,12.2h1.4v-4c0-0.6,0.2-1.1,0.6-1.6c0.4-0.4,0.8-0.7,1.4-0.7c1.2,0,1.8,0.6,1.8,1.8v4.5h1.4V7.6
			c0-0.9-0.2-1.7-0.7-2.2c-0.5-0.5-1.2-0.8-2.1-0.8c-0.5,0-0.9,0.1-1.3,0.4c-0.4,0.2-0.8,0.5-1,0.9H335v-1h-1.3V12.2z M327.1,6.6
			c0.5-0.5,1-0.7,1.7-0.7s1.2,0.2,1.7,0.7c0.5,0.5,0.7,1.1,0.7,1.9c0,0.8-0.2,1.4-0.7,1.9c-0.5,0.5-1,0.7-1.7,0.7
			c-0.7,0-1.2-0.2-1.7-0.7c-0.5-0.5-0.7-1.1-0.7-1.9C326.4,7.7,326.7,7.1,327.1,6.6 M326.1,11.3c0.7,0.7,1.6,1.1,2.7,1.1
			c1.1,0,2-0.4,2.7-1.1c0.7-0.7,1.1-1.7,1.1-2.8c0-1.1-0.4-2.1-1.1-2.8c-0.7-0.7-1.6-1.1-2.7-1.1c-1.1,0-2,0.4-2.7,1.1
			c-0.7,0.7-1.1,1.7-1.1,2.8S325.4,10.6,326.1,11.3 M322.4,12.2h1.4V4.9h-1.4V12.2z M323.8,1.7c-0.2-0.2-0.4-0.3-0.7-0.3
			c-0.3,0-0.5,0.1-0.7,0.3c-0.2,0.2-0.3,0.4-0.3,0.7c0,0.3,0.1,0.5,0.3,0.7c0.2,0.2,0.4,0.3,0.7,0.3c0.3,0,0.5-0.1,0.7-0.3
			c0.2-0.2,0.3-0.4,0.3-0.7C324,2.1,324,1.9,323.8,1.7 M321.1,12.1l-0.4-1.2c-0.1,0-0.2,0.1-0.3,0.1c-0.1,0-0.2,0-0.3,0
			c-0.2,0-0.5-0.1-0.6-0.3c-0.2-0.2-0.3-0.5-0.3-1V6.1h1.8V4.9h-1.8V2.6h-1.4v2.2h-1.3v1.3h1.3v4.1c0,0.7,0.2,1.2,0.6,1.5
			c0.4,0.4,0.9,0.6,1.5,0.6C320.3,12.3,320.7,12.2,321.1,12.1 M309.3,6.1l1.2,0.8c0.4-0.6,1.1-1,1.8-1c0.5,0,0.9,0.2,1.3,0.5
			c0.4,0.3,0.6,0.7,0.6,1.2v0.3c-0.5-0.3-1.2-0.4-2-0.4c-1,0-1.7,0.2-2.3,0.7c-0.6,0.4-0.9,1-0.9,1.8c0,0.7,0.3,1.3,0.8,1.8
			c0.5,0.5,1.2,0.7,2,0.7c0.9,0,1.7-0.4,2.3-1.3h0.1v1h1.3V7.7c0-0.9-0.3-1.7-0.9-2.2c-0.6-0.5-1.4-0.8-2.4-0.8
			C310.9,4.6,310,5.1,309.3,6.1 M311,8.9c0.4-0.3,0.8-0.4,1.4-0.4c0.8,0,1.4,0.2,1.8,0.5c0,0.6-0.2,1.1-0.7,1.5
			c-0.5,0.4-1,0.6-1.5,0.6c-0.4,0-0.8-0.1-1.1-0.4c-0.3-0.2-0.5-0.5-0.5-0.9C310.5,9.5,310.7,9.2,311,8.9 M307.1,11.8
			c0.6-0.4,1-0.9,1.3-1.5l-1.2-0.5c-0.4,0.9-1.1,1.4-2.1,1.4c-0.6,0-1.2-0.3-1.6-0.8c-0.4-0.5-0.7-1.1-0.7-1.9s0.2-1.4,0.7-1.9
			c0.5-0.5,1-0.8,1.6-0.8c1,0,1.7,0.5,2,1.4l1.3-0.5c-0.3-0.7-0.7-1.2-1.3-1.5c-0.6-0.4-1.2-0.6-2-0.6c-1.1,0-2,0.4-2.7,1.1
			c-0.7,0.7-1.1,1.7-1.1,2.8c0,1.1,0.4,2,1.1,2.8c0.7,0.7,1.6,1.1,2.7,1.1C305.9,12.4,306.5,12.2,307.1,11.8 M300.2,4.9h-1.4v4
			c0,0.6-0.2,1.1-0.6,1.6c-0.4,0.4-0.8,0.7-1.4,0.7c-1.2,0-1.8-0.6-1.8-1.8V4.9h-1.4v4.6c0,0.9,0.2,1.7,0.7,2.2
			c0.5,0.5,1.2,0.8,2.1,0.8c0.5,0,0.9-0.1,1.3-0.4c0.4-0.2,0.8-0.5,1-0.9h0.1v1h1.3V4.9z M289.7,12.1c0.4-0.2,0.8-0.5,1-0.9h0.1v1
			h1.3V1.5h-1.4v3.4l0.1,1h-0.1c-0.2-0.4-0.6-0.7-1-0.9c-0.4-0.2-0.9-0.3-1.5-0.3c-1,0-1.8,0.4-2.5,1.1c-0.7,0.8-1,1.7-1,2.8
			c0,1.1,0.3,2,1,2.8c0.7,0.8,1.5,1.1,2.5,1.1C288.8,12.4,289.3,12.3,289.7,12.1 M286.8,10.4c-0.4-0.5-0.7-1.1-0.7-1.9
			c0-0.8,0.2-1.4,0.7-1.9c0.4-0.5,1-0.7,1.7-0.7c0.7,0,1.2,0.2,1.7,0.7c0.4,0.5,0.7,1.1,0.7,1.9c0,0.8-0.2,1.4-0.7,1.9
			c-0.4,0.5-1,0.7-1.7,0.7C287.8,11.2,287.3,10.9,286.8,10.4 M277.7,1.5v10.7h6.2v-1.3H279V7.5h4.4V6.2H279V2.8h4.9V1.5H277.7z
			 M270.1,8.1c0-0.6,0.2-1,0.6-1.5c0.4-0.4,0.8-0.6,1.3-0.6c0.4,0,0.6,0,0.8,0.1l0.4-1.3c-0.3-0.1-0.6-0.2-1-0.2
			c-0.4,0-0.8,0.1-1.3,0.4c-0.4,0.3-0.7,0.6-0.9,1H270V4.9h-1.3v7.3h1.4V8.1z M262.2,6.6c0.5-0.5,1-0.7,1.7-0.7
			c0.7,0,1.2,0.2,1.7,0.7c0.5,0.5,0.7,1.1,0.7,1.9c0,0.8-0.2,1.4-0.7,1.9c-0.5,0.5-1,0.7-1.7,0.7c-0.7,0-1.2-0.2-1.7-0.7
			c-0.5-0.5-0.7-1.1-0.7-1.9C261.5,7.7,261.7,7.1,262.2,6.6 M261.2,11.3c0.7,0.7,1.6,1.1,2.7,1.1c1.1,0,2-0.4,2.7-1.1
			c0.7-0.7,1.1-1.7,1.1-2.8c0-1.1-0.4-2.1-1.1-2.8c-0.7-0.7-1.6-1.1-2.7-1.1c-1.1,0-2,0.4-2.7,1.1c-0.7,0.7-1.1,1.7-1.1,2.8
			S260.5,10.6,261.2,11.3 M257.1,2.1c-0.5,0.4-0.7,1-0.7,1.8v1.1H255v1.3h1.4v6h1.4v-6h1.9V4.9h-1.9V3.9c0-0.4,0.1-0.7,0.3-0.9
			c0.2-0.2,0.5-0.4,0.8-0.4c0.3,0,0.6,0.1,0.8,0.2l0.4-1.2c-0.3-0.2-0.7-0.3-1.2-0.3C258.1,1.4,257.5,1.6,257.1,2.1"/>
		<path class="st4" d="M205.3,35.6h8c2.6,0,4.5-0.6,5.9-1.8c1.3-1.2,2-2.9,2-5.1c0-2.2-0.7-3.9-2-5.2c-1.3-1.3-3.2-1.9-5.7-2h-8.2
			V35.6z M205.3,37.8v12.7h-2.6V19.3h10.6c3.2,0,5.8,0.8,7.7,2.5c1.9,1.7,2.8,3.9,2.8,6.8c0,2.9-0.9,5.2-2.7,6.8
			c-1.8,1.6-4.4,2.4-7.9,2.4H205.3z"/>
		<path class="st4" d="M235.5,48.7c1.7,0,3.3-0.4,4.6-1.2c1.4-0.8,2.3-1.9,3-3.3V39h-4.6c-2.6,0-4.6,0.5-6,1.4
			c-1.4,0.9-2.2,2.2-2.2,3.7c0,1.3,0.5,2.4,1.4,3.2C232.6,48.3,233.9,48.7,235.5,48.7 M243.5,50.5c-0.3-0.7-0.4-1.8-0.5-3.2
			c-0.9,1.2-2,2.1-3.4,2.7c-1.4,0.6-2.9,1-4.4,1c-2.2,0-4-0.6-5.4-1.9s-2.1-2.8-2.1-4.7c0-2.3,0.9-4,2.8-5.4c1.9-1.3,4.5-2,7.9-2
			h4.7v-2.6c0-1.7-0.5-3-1.5-3.9c-1-1-2.5-1.4-4.5-1.4c-1.8,0-3.3,0.5-4.4,1.4c-1.2,0.9-1.8,2-1.8,3.3l-2.6,0c0-1.8,0.9-3.4,2.6-4.8
			c1.7-1.4,3.8-2,6.3-2c2.6,0,4.6,0.6,6.1,1.9c1.5,1.3,2.3,3.1,2.3,5.4v11c0,2.2,0.2,3.9,0.7,5v0.3H243.5z"/>
		<path class="st4" d="M263.1,29.5c-0.5-0.1-1.1-0.2-1.7-0.2c-1.6,0-3,0.4-4.1,1.3c-1.1,0.9-1.9,2.2-2.4,3.9v15.9h-2.6V27.3h2.5
			l0,3.7c1.4-2.7,3.5-4.1,6.5-4.1c0.7,0,1.3,0.1,1.7,0.3L263.1,29.5z"/>
		<path class="st4" d="M272.3,21.4v5.9h4.8v2.1h-4.8v15.5c0,1.3,0.2,2.2,0.7,2.9c0.5,0.6,1.2,0.9,2.3,0.9c0.4,0,1.1-0.1,2.1-0.2
			l0.1,2.1c-0.7,0.2-1.6,0.4-2.7,0.4c-1.8,0-3-0.5-3.8-1.5c-0.8-1-1.2-2.5-1.2-4.5V29.4h-4.3v-2.1h4.3v-5.9H272.3z"/>
		<path class="st4" d="M284.8,27.3l0.1,4c0.9-1.4,2-2.5,3.3-3.3c1.3-0.8,2.7-1.1,4.3-1.1c2.5,0,4.3,0.7,5.6,2.1
			c1.2,1.4,1.8,3.5,1.8,6.3v15.2h-2.6V35.3c0-2.1-0.5-3.6-1.3-4.6c-0.9-1-2.3-1.5-4.2-1.5c-1.6,0-3,0.5-4.2,1.5
			c-1.2,1-2.1,2.3-2.7,4v15.9h-2.6V27.3H284.8z"/>
		<path class="st4" d="M315.1,29.1c-1.9,0-3.6,0.7-4.9,2.1c-1.3,1.4-2.1,3.3-2.4,5.7h13.9v-0.3c-0.1-2.2-0.7-4-1.9-5.5
			C318.6,29.8,317,29.1,315.1,29.1 M315.5,51c-2,0-3.8-0.5-5.4-1.5c-1.6-1-2.8-2.3-3.7-4.1c-0.9-1.7-1.3-3.7-1.3-5.8v-0.9
			c0-2.2,0.4-4.2,1.3-6c0.9-1.8,2.1-3.2,3.6-4.2c1.5-1,3.2-1.5,5-1.5c2.8,0,5.1,1,6.7,2.9c1.7,1.9,2.5,4.6,2.5,7.9v1.4h-16.6v0.5
			c0,2.6,0.8,4.8,2.3,6.6c1.5,1.8,3.4,2.6,5.7,2.6c1.4,0,2.6-0.2,3.6-0.8c1.1-0.5,2-1.3,2.9-2.4l1.6,1.2
			C321.9,49.6,319.1,51,315.5,51"/>
		<path class="st4" d="M340,29.5c-0.5-0.1-1.1-0.2-1.7-0.2c-1.6,0-3,0.4-4.1,1.3c-1.1,0.9-1.9,2.2-2.4,3.9v15.9h-2.6V27.3h2.5l0,3.7
			c1.4-2.7,3.5-4.1,6.5-4.1c0.7,0,1.3,0.1,1.7,0.3L340,29.5z"/>
	</g>
	<path class="st4" d="M170.1,51c-0.3,0-0.6-0.1-0.6-0.3V0.3c0-0.2,0.3-0.3,0.6-0.3s0.6,0.1,0.6,0.3v50.4
		C170.7,50.8,170.4,51,170.1,51z"/>
</g>
</svg>